<!-- by TradingView --><svg xmlns="http://www.w3.org/2000/svg" width="18" height="18"><path fill="#E70D2F" d="M0 0h18v18H0z"/><path d="M8.07 6.55c-.4-.05-1.2-.3-1.28-.87a.63.63 0 01.1-.37.45.45 0 00-.35.16c.02-.07.08-.24.16-.33a.23.23 0 00-.03-.07c-.04-.1-.13-.28-.08-.5a.64.64 0 00.3.37c-.06-.24-.01-.8.67-1.13.21-.07.63-.34.63-.81l.02.06c.05.12.14.36.08.57l.16-.33c.02.05 0 .26-.01.47.14.04.47.18.66.37.01.04.07.13.23.18.1.11.28.42.27.76-.02.43-.04.65-.55.88l-.32.19h-.5c-.3.2-.16.4-.16.4zm2-2.57c.1 0 .19.08.22.12-.17-.07-.19-.03-.17 0 .06.2.3.22.57.24.13 0 .26.02.39.04.19.04.48.3.7.48a4 4 0 00.23.19l.15-.13.07.12.06-.03.09.21c.03.02.07.08 0 .17v.4l-.1.03c0 .68-.25 1.23-.36 1.47l-.06.12c-.15.32-.28.58-.11.8.01.02.06.04.1-.14.01.05.02.17-.03.25-.07.1-.24.12-.37.02-.13-.1-.16-.54-.05-.75l.13-.25c.22-.38.57-1 .54-1.46L11 6.2c-.01-.2-.04-.45-.08-.58l.86-.38a2.81 2.81 0 00-1.49-.64c-.24.01-.45-.2-.46-.35-.01-.15.11-.28.23-.27zM8.15 8.03a1.3 1.3 0 01-.43-.84c0-.27.17-.44.35-.54-.04-.1.02-.35.2-.41h.48l.34-.2c0 .07.03.2.11.14.15-.12.67-.33 1.02-.34a.37.37 0 00-.06-.15c0-.07.04-.18.23-.06.04.02.14.02.18-.12.03-.01.13.01.2.18 0 .06.02.18.08.22.05.17.05.52-.28.6 0 .04.02.06.05.07.03.02.06.04.05.1 0 .1-.2.12-.28.12-.03.04-.05.11-.08.18l-.08.22c.06.11.18.41.17.7-.01.22-.04.6-.22.9 0 .18-.06.77-.06.77 0 .13-.02.36-.1.58.07.14.24.5.24.74 0 .33-.24.62-.48.8-.03.11-.38.5-.48.56a.39.39 0 01-.03.02c-.1-.01-.3.02-.3.24-.02.12-.15.41-.6.78a.81.81 0 00-.23.49v.65l.18.24c.05.11.1.33-.18.33-.1-.01-.33-.08-.43-.27 0-.09-.07-.28-.3-.4a.37.37 0 01-.19-.45c.04-.07.14-.22.25-.3.02-.27.07-.87.18-1.07.11-.2.37-.33.49-.37a2.72 2.72 0 01-.26-.76.71.71 0 00-.24.31c-.1.26-.5.93-.57.98-.07.04-.09-.4-.08-.46 0-.05-.07-.05-.1-.04.03-.33-.04-.99-.63-.99.2-.23.97-1.01 1.61-1.61-.4 0-1.37.04-1.6.31l-.05.39c-.04.06-.13.15-.2 0-.07-.2.03-.71.14-.98a.91.91 0 000-.8 1.53 1.53 0 00-.13-.22c-.09-.13-.15-.22-.1-.39.1.08.46.26 1.1.3.51.04 1.07.15 1.34.21a.71.71 0 00-.14-.12c-.06-.04-.08-.17-.08-.24zm-1.27-1.5c-.45.5-1.06.62-1.3.61.41.51.98.51 1.58.51h.05c.22-.12.32-.35.42-.57l.1-.22c-.1-.11-.36-.34-.52-.39a.37.37 0 00-.33.06z" fill="#fff"/></svg>