<!-- by TradingView --><svg xmlns="http://www.w3.org/2000/svg" width="18" height="18"><path fill="#F0F3FA" d="M0 0h18v18H0z"/><path d="M4.65 13.68c-.31-.45-.58-2.78-.74-3.48-.17-.7-.36-1.6-.45-1.92-.16-.52-.52-1.6-.45-2.15l.04-.4.03.03c-.01.21.62 1.53.7 1.84a52.03 52.03 0 01.87 3.94c.06.33.3 1.57.4 1.77h.71c.33-.04.65-.07.98-.09 1.57-.1 3.81-.2 5.36.24.14.04.13.09.26.12a37.02 37.02 0 012.04-7.24c.1-.22.5-.72.6-.86l-.9 3.05a1.51 1.51 0 01-.06.2l-.06.26a30.87 30.87 0 00-.34 1.22c-.3 1.17-.61 2.28-.87 3.46l-.06.33-.7-.16a22.2 22.2 0 00-5.88-.09c-.34.04-.92.18-1.2.12-.16-.03-.21-.09-.28-.2z" fill="#89BE5C"/><path d="M8.66 11.2c-.04-.04-.02-.02-.03-.07-.03 0-.08-.05-.09-.05-.04-.01-.05.03-.12-.01-.1-.06-.07-.15-.05-.29.1-1.07.05-2.26-.87-2.72C7 7.75 6 7.4 5.47 7.5c-.53.11-.4.59-.2.84.29.38.62.47.72.64h-.01l-.04.03c-.1.05-.25.1-.28.31-.03.22.14.37.22.46.2.2.32.3.54.46.34.26-.08.24-.1.62 0 .18.06.26.13.35l.06.1c.15.25.35.5.61.65.31.16.62-.03.9-.15.25-.12.65-.2.64-.62z" fill="#39AEF8"/><path d="M8.81 11.69a.64.64 0 00-.08.28c0 .54.49.1.64-.04.14-.13 1.13-1.19 1.35-1.46l.36-.46c.09-.1.12-.25.17-.4.04-.16.09-.32.19-.48l.07-.1.08-.14c.16-.26.24-.34.32-.45a4.2 4.2 0 00.38-.5 6 6 0 00.5-.71c.13-.24.18-.37-.02-.55-.3-.27-.82.13-1.04.36l-.11.11a2.12 2.12 0 00-.26.3 1.48 1.48 0 00-.08.05l-.75.92-.38.4c-.28.3-.6.66-.72.75-.1.08-.11.07-.19.01l-.02-.02.01-.07c-.06.12-.11.33-.16.53-.03.12-.06.25-.1.35a3.18 3.18 0 01-.34.76v.03l.03.04c.1.05.12.02.17-.02a.78.78 0 01.03-.03.8.8 0 01-.02.06.48.48 0 00-.03.13 4 4 0 000 .25v.1zm3.42-4.39l.03.05v-.02a.32.32 0 00-.03-.03z" fill="#76A41D"/><path d="M3.1 5.78c.57-.1.84-.12 1.4-.2a7.2 7.2 0 011.68 0c.7.09 1.5.27 2.14.55a4.31 4.31 0 00.55.2c.03.01.05-.09.07-.1a3.28 3.28 0 00-.86-.64 5.05 5.05 0 00-1.47-.47c-.14-.03-.3-.06-.43-.06l-.22-.02c-.2 0-.51-.04-.67-.01-.24.04-.45 0-.86.09a3.3 3.3 0 00-1.07.38l-.15.1c-.04.04-.08.13-.1.18zm5.96.41a5.7 5.7 0 001.3-.22c.45-.16.9-.3 1.4-.4a7.1 7.1 0 012.4-.14c.26.04.57 0 .81-.05-.04-.04-.1-.06-.16-.08l-.54-.16A5.67 5.67 0 0013.15 5h-.55a6.7 6.7 0 00-.85.08c-.27.05-.52.08-.77.15-.53.14-.89.25-1.38.51-.2.12-.4.25-.54.45z" fill="#89BE5C"/><path d="M8.2 8.83c.15.38.14.44.2 1 0 .45-.04.82-.07 1.24a4.07 4.07 0 01.3.06c.02.06.33-.64.37-.8.14-.58.14-.75.45-1.27.14-.23.2-.17.28-.26.06-.08.23-.17.16-.32-.05-.1-.18-.14-.24-.25-.23-.43-.68-.43-.95-.11-.07.1-.1.22-.16.35-.07.16-.3.27-.34.36z" fill="#F2C244"/></svg>