<!-- by TradingView --><svg xmlns="http://www.w3.org/2000/svg" width="18" height="18"><path fill="#99CDD1" d="M0 0h18v18H0z"/><path d="M9 2.71c-.08.24-.39.42-.72.61-.58.34-1.24.72-.97 1.54-.38-.78-1.14-.57-1.8-.4-.38.11-.73.2-.96.1.12.22.02.56-.08.94-.17.64-.37 1.38.41 1.77-.82-.28-1.21.4-1.55 1-.2.34-.38.65-.62.73.24.08.42.39.61.72.34.58.72 1.24 1.54.97-.78.38-.57 1.14-.4 1.8.11.38.2.73.1.96.22-.12.56-.02.94.08.64.17 1.38.37 1.76-.4-.27.81.41 1.2 1 1.54.35.2.66.38.74.62.08-.24.39-.42.72-.61.58-.34 1.24-.72.97-1.54.38.78 1.14.57 1.8.4.38-.11.73-.2.96-.1-.12-.22-.02-.56.08-.94.17-.64.37-1.38-.41-1.77.82.28 1.21-.4 1.55-1 .2-.34.38-.65.62-.73-.24-.08-.42-.4-.62-.74-.34-.6-.73-1.27-1.55-1 .78-.38.58-1.12.4-1.76-.1-.38-.19-.72-.07-.95-.23.12-.58.02-.96-.08-.66-.18-1.42-.39-1.8.39.27-.82-.39-1.2-.97-1.54-.33-.2-.64-.37-.72-.6z" fill="#F0F3FA"/><path fill-rule="evenodd" d="M5.24 7.53v2.94c.23 0 .42-.19.42-.42v-.42h.84a1.05 1.05 0 100-2.1H5.24zm.42.42v1.26h.84a.63.63 0 100-1.26h-.84z" fill="#5A0522"/><path d="M10.4 9.87a.256.256 0 00-.32 0c-.2.18-.47.29-.75.29a1.16 1.16 0 11.64-2.12l.13-.13c.1-.09.08-.24-.03-.3a1.58 1.58 0 10.47 2.39l-.14-.13zm.93.71c-.3 0-.59-.1-.82-.26l.19-.19a.24.24 0 01.25-.04 1.05 1.05 0 001.43-.98V7.95h-1.05a.21.21 0 01-.21-.21v-.21h1.68v1.58c0 .8-.66 1.47-1.47 1.47z" fill="#5A0522"/><path d="M10.41 8.25c.21.22.36.5.37.81 0 .28-.15.46-.15.46a.9.9 0 00.52-.83c-.11.02-.28.1-.28.1 0-.04-.02-.1-.04-.14.15-.08.3-.13.49-.13a1.36 1.36 0 01-.06.54c-.12.31-.44.58-.79.58 0 0 .18-.23.18-.58a.9.9 0 00-.24-.57.86.86 0 00-.21.57c0 .4.15.58.15.58-.34 0-.66-.3-.77-.6a1.25 1.25 0 01-.06-.53c.18 0 .33.05.49.13a.48.48 0 00-.04.15s-.17-.09-.29-.1a.9.9 0 00.48.8s-.09-.17-.09-.43c0-.31.12-.59.34-.8z" fill="#EF4C7F"/><path d="M10.52 9.67c.45.13.8.1 1.1-.33a.7.7 0 00-.36-.09s.02-.01.04-.06a.26.26 0 00.04-.1c.17.03.33.07.5.2-.17.33-.47.53-.81.56-.2.01-.38-.03-.51-.18zm-.22 0a.52.52 0 01-.48.18A1.02 1.02 0 019 9.3a.9.9 0 01.5-.2s0 .04.03.09l.05.06a.67.67 0 00-.36.09c.3.42.69.46 1.09.33z" fill="#EF4C7F"/></svg>