<!-- by TradingView --><svg width="18" height="18" viewBox="0 0 18 18" xmlns="http://www.w3.org/2000/svg"><path fill="#F0F3FA" d="M0 0h18v18H0z"/><path d="M8.54 4.16 11.82 10H9.7L7.44 5.98c-.47-.83-.53-2.12.44-2.7.78-.45 2.02-.45 2.65.66.5.9-.08 2.12-.43 2.57L9.04 4.65c.66-.83.16-1.64-.32-1.36-.39.22-.28.67-.18.87ZM13.93 12h-6.7l.96-1.78h4.73c.94 0 2.08.77 2.08 1.68 0 1.19-.62 2.1-1.88 2.1-1.02 0-1.7-1.36-1.9-1.9h2.12c.37 1 1.24 1.1 1.24.53 0-.45-.43-.62-.65-.63ZM7.77 6.9l-3.33 5.87c-.12.2-.45.51-.83.29-.48-.28-.17-1.12 1.12-1.12l1.02-1.72c-1.04 0-1.98.01-2.49.9-.63 1.13-.02 2.21.76 2.67.98.58 2.05-.13 2.52-.96L8.82 8.8 7.77 6.9Z" fill="#0066B0"/></svg>