<!-- by TradingView --><svg xmlns="http://www.w3.org/2000/svg" width="18" height="18"><path d="M0 9a9 9 0 1118 0A9 9 0 010 9z" fill="url(#acuhhibkc)"/><path d="M5.46 6.84H2.5v.66h1.15v4.34h.66V7.5h1.15v-.66zm.28 1.39c0-.77.6-1.4 1.32-1.4.73 0 1.32.63 1.32 1.4v.17h-.66v-.17c0-.39-.3-.7-.66-.7a.68.68 0 00-.66.7v2.23c0 .38.3.69.66.69.37 0 .66-.31.66-.7v-.51h.66v.52c0 .76-.6 1.38-1.32 1.38-.73 0-1.32-.62-1.32-1.38V8.23zm3.62 3.61v-5h.76l1.22 3.7v-3.7H12v5h-.88l-1.1-3.36v3.36h-.66zM14.92 7c.3.18.54.5.58.93a2.33 2.33 0 010 .36v.17h-.65a7.2 7.2 0 010-.46.47.47 0 00-.24-.39.72.72 0 00-.51-.05c-.41.1-.6.6-.3 1.03.1.13.29.29.53.46l.12.08c.53.39 1 .66 1.05 1.37.04.43-.1.79-.34 1.03-.23.24-.55.34-.86.34-.6 0-1.27-.45-1.27-1.34v-.51h.66v.51c0 .43.3.65.62.65.16 0 .3-.05.4-.15.08-.08.15-.22.13-.47-.04-.49-.41-.6-.77-.86l-.1-.07c-.25-.18-.52-.36-.7-.64-.52-.75-.27-1.88.68-2.1.32-.08.67-.05.97.11z" fill="#fff"/><defs><linearGradient id="acuhhibkc" x1="3.35" y1="3.12" x2="21.9" y2="24.43" gradientUnits="userSpaceOnUse"><stop stop-color="#1A1E21"/><stop offset="1" stop-color="#06060A"/></linearGradient></defs></svg>