<!-- by TradingView --><svg xmlns="http://www.w3.org/2000/svg" width="18" height="18"><path fill="#007DCD" d="M0 0h18v18H0z"/><path d="M10.25 13.57V14h-2.5v-.43c.34 0 .83-.17.83-.8v-.49c-2.3-.02-4.16-1.33-4.16-2.94 0-1.6 1.86-2.91 4.16-2.94v-.28c.01-.23-.05-.66-.78-.63-.92.04-2.23.33-3.76.94L4 6.4l2.15-1.3-.27.4c.51-.16 1.83-.46 3.08-.49h.07c1.26.02 2.58.33 3.1.49l-.28-.4L14 6.39l-.04.04c-1.53-.62-2.84-.9-3.76-.94-.73-.03-.8.4-.78.63v.3c.74.03 1.57.1 2.12.2l-.19-.33 1.91.83c-.73-.12-2.46-.33-3.84-.33v5.08c1.37-.06 3.14-.35 4.08-1.14-.18.48-1.25 1.4-4.08 1.54v.5c0 .6.5.8.83.8zm-1.67-1.71V6.84c-1.67.2-3.5 1.08-3.5 2.5 0 1.54 2.06 2.37 3.5 2.52zM6.71 8h1.46c0 .08-.05.26-.38.26v1.86c0 .07.03.2.19.23.15.01.19.15.19.22H6.7c.01-.07.08-.22.26-.22.07 0 .16-.07.16-.23V8.26c-.14 0-.42-.05-.42-.26zm4.45 0H9.83c0 .28.28.33.42.33v1.8c-.01.24-.1.27-.2.3h-.22v.14h2.55c.32-.03.66-.7.79-1.04-.56.66-.95.82-1.08.82h-1.04a.233.233 0 01-.23-.22v-1.8c.3 0 .35-.22.34-.33z" fill="#fff"/></svg>